<mxfile host="app.diagrams.net" modified="2023-10-24T05:38:50.067Z" agent="Mozilla/5.0 (Windows NT 10.0; Win64; x64) AppleWebKit/537.36 (KHTML, like Gecko) Chrome/118.0.0.0 Safari/537.36" etag="T9ejYDf0L6hb7qwjfbrl" version="22.0.6" type="github">
  <diagram name="第 1 页" id="Y_zXlL8C9E7NeqhMRY_K">
    <mxGraphModel dx="600" dy="310" grid="1" gridSize="10" guides="1" tooltips="1" connect="1" arrows="1" fold="1" page="1" pageScale="1" pageWidth="827" pageHeight="1169" math="0" shadow="0">
      <root>
        <mxCell id="0" />
        <mxCell id="1" parent="0" />
        <mxCell id="_PLwFfFNgd4aVGR89fuU-63" value="A" style="rounded=0;whiteSpace=wrap;html=1;" vertex="1" parent="1">
          <mxGeometry x="120" y="50" width="40" height="40" as="geometry" />
        </mxCell>
        <mxCell id="_PLwFfFNgd4aVGR89fuU-77" value="-1" style="rounded=0;whiteSpace=wrap;html=1;" vertex="1" parent="1">
          <mxGeometry x="160" y="50" width="40" height="40" as="geometry" />
        </mxCell>
        <mxCell id="_PLwFfFNgd4aVGR89fuU-78" value="B" style="rounded=0;whiteSpace=wrap;html=1;" vertex="1" parent="1">
          <mxGeometry x="120" y="90" width="40" height="40" as="geometry" />
        </mxCell>
        <mxCell id="_PLwFfFNgd4aVGR89fuU-79" value="0" style="rounded=0;whiteSpace=wrap;html=1;" vertex="1" parent="1">
          <mxGeometry x="160" y="90" width="40" height="40" as="geometry" />
        </mxCell>
        <mxCell id="_PLwFfFNgd4aVGR89fuU-80" value="C" style="rounded=0;whiteSpace=wrap;html=1;" vertex="1" parent="1">
          <mxGeometry x="120" y="130" width="40" height="40" as="geometry" />
        </mxCell>
        <mxCell id="_PLwFfFNgd4aVGR89fuU-81" value="0" style="rounded=0;whiteSpace=wrap;html=1;" vertex="1" parent="1">
          <mxGeometry x="160" y="130" width="40" height="40" as="geometry" />
        </mxCell>
        <mxCell id="_PLwFfFNgd4aVGR89fuU-82" value="D" style="rounded=0;whiteSpace=wrap;html=1;" vertex="1" parent="1">
          <mxGeometry x="120" y="170" width="40" height="40" as="geometry" />
        </mxCell>
        <mxCell id="_PLwFfFNgd4aVGR89fuU-83" value="1" style="rounded=0;whiteSpace=wrap;html=1;" vertex="1" parent="1">
          <mxGeometry x="160" y="170" width="40" height="40" as="geometry" />
        </mxCell>
        <mxCell id="_PLwFfFNgd4aVGR89fuU-84" value="下标" style="text;html=1;strokeColor=none;fillColor=none;align=center;verticalAlign=middle;whiteSpace=wrap;rounded=0;" vertex="1" parent="1">
          <mxGeometry x="80" y="10" width="40" height="40" as="geometry" />
        </mxCell>
        <mxCell id="_PLwFfFNgd4aVGR89fuU-85" value="data" style="text;html=1;strokeColor=none;fillColor=none;align=center;verticalAlign=middle;whiteSpace=wrap;rounded=0;" vertex="1" parent="1">
          <mxGeometry x="120" y="10" width="40" height="40" as="geometry" />
        </mxCell>
        <mxCell id="_PLwFfFNgd4aVGR89fuU-86" value="parent" style="text;html=1;strokeColor=none;fillColor=none;align=center;verticalAlign=middle;whiteSpace=wrap;rounded=0;" vertex="1" parent="1">
          <mxGeometry x="160" y="10" width="40" height="40" as="geometry" />
        </mxCell>
        <mxCell id="_PLwFfFNgd4aVGR89fuU-87" value="0" style="text;html=1;strokeColor=none;fillColor=none;align=center;verticalAlign=middle;whiteSpace=wrap;rounded=0;" vertex="1" parent="1">
          <mxGeometry x="80" y="50" width="40" height="40" as="geometry" />
        </mxCell>
        <mxCell id="_PLwFfFNgd4aVGR89fuU-88" value="1" style="text;html=1;strokeColor=none;fillColor=none;align=center;verticalAlign=middle;whiteSpace=wrap;rounded=0;" vertex="1" parent="1">
          <mxGeometry x="80" y="90" width="40" height="40" as="geometry" />
        </mxCell>
        <mxCell id="_PLwFfFNgd4aVGR89fuU-89" value="2" style="text;html=1;strokeColor=none;fillColor=none;align=center;verticalAlign=middle;whiteSpace=wrap;rounded=0;" vertex="1" parent="1">
          <mxGeometry x="80" y="130" width="40" height="40" as="geometry" />
        </mxCell>
        <mxCell id="_PLwFfFNgd4aVGR89fuU-90" value="3" style="text;html=1;strokeColor=none;fillColor=none;align=center;verticalAlign=middle;whiteSpace=wrap;rounded=0;" vertex="1" parent="1">
          <mxGeometry x="80" y="170" width="40" height="40" as="geometry" />
        </mxCell>
        <mxCell id="_PLwFfFNgd4aVGR89fuU-97" style="edgeStyle=orthogonalEdgeStyle;orthogonalLoop=1;jettySize=auto;html=1;exitX=0;exitY=1;exitDx=0;exitDy=0;entryX=1;entryY=0;entryDx=0;entryDy=0;curved=1;endArrow=none;endFill=0;" edge="1" parent="1" source="_PLwFfFNgd4aVGR89fuU-92" target="_PLwFfFNgd4aVGR89fuU-93">
          <mxGeometry relative="1" as="geometry" />
        </mxCell>
        <mxCell id="_PLwFfFNgd4aVGR89fuU-98" style="edgeStyle=orthogonalEdgeStyle;orthogonalLoop=1;jettySize=auto;html=1;exitX=1;exitY=1;exitDx=0;exitDy=0;entryX=0;entryY=0;entryDx=0;entryDy=0;curved=1;endArrow=none;endFill=0;" edge="1" parent="1" source="_PLwFfFNgd4aVGR89fuU-92" target="_PLwFfFNgd4aVGR89fuU-94">
          <mxGeometry relative="1" as="geometry" />
        </mxCell>
        <mxCell id="_PLwFfFNgd4aVGR89fuU-92" value="A" style="ellipse;whiteSpace=wrap;html=1;aspect=fixed;" vertex="1" parent="1">
          <mxGeometry x="324" y="50" width="40" height="40" as="geometry" />
        </mxCell>
        <mxCell id="_PLwFfFNgd4aVGR89fuU-99" style="edgeStyle=orthogonalEdgeStyle;orthogonalLoop=1;jettySize=auto;html=1;exitX=0.5;exitY=1;exitDx=0;exitDy=0;entryX=0.5;entryY=0;entryDx=0;entryDy=0;curved=1;endArrow=none;endFill=0;" edge="1" parent="1" source="_PLwFfFNgd4aVGR89fuU-93" target="_PLwFfFNgd4aVGR89fuU-95">
          <mxGeometry relative="1" as="geometry" />
        </mxCell>
        <mxCell id="_PLwFfFNgd4aVGR89fuU-93" value="B" style="ellipse;whiteSpace=wrap;html=1;aspect=fixed;" vertex="1" parent="1">
          <mxGeometry x="284" y="100" width="40" height="40" as="geometry" />
        </mxCell>
        <mxCell id="_PLwFfFNgd4aVGR89fuU-94" value="C" style="ellipse;whiteSpace=wrap;html=1;aspect=fixed;" vertex="1" parent="1">
          <mxGeometry x="364" y="100" width="40" height="40" as="geometry" />
        </mxCell>
        <mxCell id="_PLwFfFNgd4aVGR89fuU-95" value="D" style="ellipse;whiteSpace=wrap;html=1;aspect=fixed;" vertex="1" parent="1">
          <mxGeometry x="264" y="160" width="40" height="40" as="geometry" />
        </mxCell>
      </root>
    </mxGraphModel>
  </diagram>
</mxfile>
